<?xml version="1.0" encoding="utf-8"?>
<!-- Generator: Adobe Illustrator 16.0.3, SVG Export Plug-In . SVG Version: 6.00 Build 0)  -->
<!DOCTYPE svg PUBLIC "-//W3C//DTD SVG 1.1//EN" "http://www.w3.org/Graphics/SVG/1.1/DTD/svg11.dtd">
<svg version="1.1" xmlns="http://www.w3.org/2000/svg" xmlns:xlink="http://www.w3.org/1999/xlink" x="0px" y="0px"
	 width="283.46px" height="283.46px" viewBox="0 0 283.46 283.46" enable-background="new 0 0 283.46 283.46" xml:space="preserve">
<g id="Capa_1" display="none">
</g>
<g id="Capa_2">
	<rect x="48.313" y="73.816" fill="#132F51" width="186.833" height="79.167"/>
	<rect x="53.813" y="80.484" fill="#77909C" width="175.833" height="66.833"/>
	<text transform="matrix(1 0 0 1 62.3135 118.6274)" fill="#132F51" font-family="'Gotham-Medium'" font-size="36">PPrieto</text>
	<text transform="matrix(1 0 0 1 62.3125 133.3174)" fill="#132F51" font-family="'CenturyGothic'" font-size="14">Visualizando datos</text>
	<g>
		<path fill="#F25310" d="M130.586,72.963c0.004-0.003,0.011-0.005,0.015-0.008c0.007-0.006,0.012-0.013,0.02-0.02
			C130.607,72.945,130.597,72.954,130.586,72.963"/>
		<path fill="#F77043" d="M135.126,71.014c-0.159,0.205-0.318,0.409-0.482,0.607c-0.373,0.445-0.789,0.898-1.309,1.424
			c-1.035,1.043-2.171,2.044-3.271,3.012c-1.239,1.09-2.522,2.218-3.683,3.432c-0.584,0.611-1.082,1.183-1.522,1.749
			c-0.467,0.596-0.897,1.24-1.28,1.912c-0.786,1.379-1.271,2.844-1.438,4.352c-0.085,0.765-0.086,1.518,0,2.237
			c0.073,0.646,0.23,1.302,0.464,1.95c0.421,1.168,1.124,2.268,2.029,3.178c0.454,0.455,0.946,0.864,1.466,1.213
			c0.514,0.35,1.078,0.653,1.675,0.903c0.563,0.236,1.178,0.425,1.828,0.558c0.219,0.045,0.446,0.083,0.671,0.111
			c0.382,0.047,0.773,0.068,1.163,0.066c0.688-0.004,1.313-0.073,1.912-0.211c0.653-0.148,1.277-0.37,1.851-0.656
			c0.602-0.298,1.178-0.677,1.714-1.128c0.269-0.229,0.546-0.496,0.846-0.821c0.345-0.367,0.666-0.786,0.959-1.244
			c0.263-0.419,0.492-0.854,0.677-1.297c0.16-0.387,0.298-0.814,0.419-1.311c0.189-0.788,0.279-1.672,0.269-2.631
			c-0.018-1.258-0.205-2.521-0.386-3.743c-0.033-0.226-0.067-0.456-0.101-0.686c-0.1-0.479-0.197-0.958-0.273-1.442
			c-0.106-0.663-0.187-1.338-0.168-2.01c0.007-0.307,0.028-0.611,0.08-0.914c0.018-0.109,0.039-0.219,0.063-0.328
			c-0.003,0.002-0.007,0.003-0.009,0.005c0.002-0.003,0.006-0.003,0.009-0.005l0,0c-0.123,0.067-0.242,0.145-0.354,0.23
			c-0.115,0.09-0.224,0.182-0.334,0.277c-0.16,0.138-0.325,0.279-0.504,0.397c-0.139,0.091-0.283,0.175-0.437,0.236
			c-0.122,0.05-0.251,0.092-0.383,0.107c-0.103,0.012-0.209,0.014-0.309-0.007c-0.098-0.021-0.192-0.055-0.277-0.109
			c-0.079-0.048-0.15-0.109-0.21-0.181c-0.043-0.05-0.084-0.104-0.122-0.162c-0.025-0.03-0.051-0.063-0.074-0.097
			c-0.068-0.102-0.128-0.209-0.169-0.324c-0.003-0.009-0.006-0.016-0.009-0.025c-0.054-0.116-0.102-0.239-0.143-0.373
			c-0.082-0.316-0.128-0.663-0.137-1.033c0-0.56,0.101-1.116,0.199-1.654c0.083-0.47,0.171-0.954,0.193-1.439
			c0.02-0.425-0.027-0.854-0.072-1.269l-0.029-0.262c-0.032-0.32-0.067-0.679-0.086-1.047c-0.038-0.318-0.064-0.638-0.072-0.958
			c-0.013-0.437,0.002-0.875,0.067-1.307c0.022-0.149,0.049-0.301,0.081-0.448C135.753,70.209,135.435,70.619,135.126,71.014"/>
		<path fill="#77909C" d="M133.769,76.738c-0.207,0.307-0.4,0.625-0.586,0.945l0.011-0.019c-0.31,0.541-0.601,1.095-0.938,1.621
			c-0.173,0.265-0.356,0.526-0.556,0.77c-0.199,0.238-0.408,0.467-0.637,0.675c-0.277,0.253-0.572,0.483-0.885,0.687
			c-0.164,0.107-0.332,0.205-0.499,0.311c-0.134,0.086-0.269,0.172-0.402,0.262c-0.507,0.344-0.991,0.724-1.425,1.159
			c-0.202,0.205-0.395,0.419-0.568,0.649c-0.172,0.225-0.33,0.46-0.472,0.705c0.003-0.007,0.008-0.012,0.011-0.021
			c-0.182,0.317-0.34,0.649-0.472,0.991c-0.133,0.344-0.241,0.693-0.336,1.048c-0.001,0.006-0.004,0.012-0.005,0.017
			c0.001-0.004,0.002-0.011,0.005-0.017v-0.005c-0.179,0.68-0.302,1.373-0.409,2.068c-0.006,0.037-0.035,0.07-0.075,0.076
			c-0.037,0.004-0.075-0.018-0.094-0.053c-0.152-0.332-0.243-0.691-0.307-1.05c-0.062-0.331-0.105-0.665-0.16-1
			c-0.145,0.11-0.282,0.227-0.412,0.354c-0.11,0.115-0.217,0.233-0.312,0.36c-0.085,0.114-0.165,0.234-0.236,0.355l0,0
			c-0.179,0.313-0.311,0.646-0.403,0.992l0.001-0.002c-0.115,0.45-0.16,0.914-0.157,1.379v-0.006c0.009,0.708,0.13,1.407,0.32,2.087
			c0,0.002,0.001,0.004,0.001,0.006c0-0.002-0.001-0.004-0.001-0.006c-0.001-0.002-0.002-0.004-0.003-0.006
			c0.268,0.934,0.663,1.829,1.156,2.668c0.194,0.326,0.404,0.646,0.632,0.953c0.174,0.137,0.354,0.268,0.537,0.391
			c0.517,0.348,1.081,0.652,1.679,0.903c0.564,0.238,1.179,0.426,1.827,0.558c0.229,0.049,0.456,0.085,0.674,0.111
			c0.378,0.047,0.771,0.071,1.16,0.067c0.693-0.005,1.322-0.075,1.918-0.212c0.651-0.147,1.273-0.369,1.851-0.656
			c0.432-0.213,0.854-0.472,1.259-0.769c0.036-0.06,0.071-0.118,0.106-0.178l-0.011,0.019c0.284-0.496,0.533-1.015,0.743-1.547
			c0.196-0.49,0.365-0.992,0.5-1.506l-0.001,0.006c0.086-0.33,0.159-0.664,0.209-1.002c0.021-0.145,0.04-0.29,0.05-0.436
			c0.018-0.266,0.021-0.531,0.019-0.798c0.001,0.008,0.002,0.015,0.001,0.022c-0.007-0.592-0.053-1.182-0.119-1.77
			c-0.063-0.585-0.145-1.17-0.211-1.756c-0.07-0.595-0.13-1.191-0.148-1.791c-0.009-0.294-0.012-0.59-0.001-0.883
			c0.01-0.236,0.025-0.471,0.049-0.705c-0.21,0.137-0.403,0.295-0.585,0.463c-0.206,0.185-0.399,0.38-0.604,0.563
			c-0.095,0.085-0.192,0.167-0.296,0.241c-0.082,0.059-0.165,0.115-0.257,0.156c-0.084,0.039-0.173,0.072-0.265,0.088
			c-0.089,0.013-0.184,0.018-0.272,0c-0.131-0.024-0.254-0.074-0.365-0.146c-0.137-0.088-0.257-0.195-0.366-0.315
			c-0.174-0.187-0.325-0.394-0.462-0.607c-0.099-0.155-0.189-0.314-0.263-0.483c-0.147-0.35-0.243-0.723-0.283-1.101
			c-0.04-0.39-0.034-0.782,0.002-1.171c0.081-0.846,0.286-1.671,0.471-2.498c0.176-0.801,0.346-1.613,0.34-2.437l-0.001,0.008
			c-0.004-0.206-0.02-0.41-0.05-0.615C134.169,76.176,133.962,76.449,133.769,76.738 M134.44,76.525
			c0.001,0.005,0.001,0.01,0.002,0.016C134.441,76.535,134.441,76.53,134.44,76.525 M123.45,89.974
			c0.001,0.008,0.002,0.013,0.001,0.019C123.45,89.986,123.451,89.98,123.45,89.974 M123.772,92.085
			c0.002,0.003,0.002,0.007,0.003,0.01C123.774,92.092,123.774,92.088,123.772,92.085"/>
		<polyline fill="#F37820" points="137.753,83.695 137.751,83.696 137.753,83.694 137.753,83.695 		"/>
		<path fill="#F37820" d="M124.008,87.634c0.001-0.001,0.001-0.001,0.001-0.002L124.008,87.634z"/>
		<path fill="#F77043" d="M137.523,60.837c-0.129,0.134-0.253,0.276-0.373,0.422c-0.135,0.163-0.268,0.327-0.397,0.489
			c-0.142,0.174-0.283,0.348-0.431,0.518c-0.124,0.143-0.249,0.284-0.386,0.415c-0.111,0.107-0.233,0.214-0.368,0.287
			c-0.051,0.028-0.103,0.051-0.157,0.063c-0.022,0.006-0.045,0.01-0.068,0.011s-0.052,0.001-0.074-0.005
			c-0.028-0.007-0.056-0.014-0.081-0.028c-0.024-0.011-0.044-0.026-0.062-0.042c-0.043-0.039-0.076-0.086-0.1-0.137
			c-0.049-0.109-0.072-0.225-0.085-0.344c-0.151,0.122-0.295,0.25-0.43,0.387c-0.149,0.152-0.289,0.311-0.416,0.48
			c-0.113,0.152-0.218,0.311-0.314,0.475l0.01-0.02c-0.141,0.248-0.266,0.507-0.367,0.775c-0.094,0.246-0.174,0.498-0.241,0.752
			c-0.001,0.008-0.004,0.013-0.004,0.02c0-0.007,0.003-0.014,0.004-0.02v-0.004c-0.182,0.709-0.277,1.434-0.375,2.157
			c-0.049,0.375-0.097,0.749-0.159,1.122c-0.033,0.205-0.068,0.41-0.111,0.613c-0.04,0.182-0.085,0.364-0.136,0.543
			c-0.111,0.389-0.248,0.771-0.415,1.141c-0.16,0.354-0.341,0.696-0.543,1.027c-0.076,0.125-0.155,0.248-0.234,0.369
			c0.056-0.039,0.111-0.078,0.167-0.116l0.048-0.032l0.211-0.146l0.068-0.059l0.064-0.061c0.12-0.107,0.237-0.214,0.354-0.322
			c0.577-0.543,0.991-1.037,1.297-1.555c0.386-0.648,0.648-1.416,0.781-2.281c0.051-0.328,0.076-0.665,0.102-0.99l0.006-0.1
			c0.019-0.262,0.044-0.619,0.115-0.956l0.018-0.067c0.05-0.176,0.102-0.313,0.173-0.443c0.047-0.072,0.101-0.144,0.165-0.213
			c0.071-0.07,0.147-0.129,0.241-0.189c0.116-0.064,0.245-0.117,0.391-0.162c0.221-0.055,0.412-0.086,0.582-0.091
			c0.049,0,0.098,0.003,0.146,0.009c0.046,0.006,0.089,0.014,0.135,0.025c0.095,0.023,0.192,0.063,0.314,0.126
			c0.067,0.042,0.126,0.083,0.184,0.122c0.1,0.068,0.158,0.108,0.22,0.146c0.113,0.072,0.205,0.111,0.294,0.122
			c0.051,0.006,0.097,0.003,0.146-0.011c0.084-0.024,0.155-0.063,0.218-0.119c0.054-0.057,0.099-0.115,0.135-0.172
			c0.028-0.084,0.053-0.17,0.077-0.255v0.001c0.062-0.244,0.106-0.495,0.134-0.746c0.026-0.263,0.037-0.526,0.037-0.791
			c-0.001,0.008,0,0.016,0.001,0.023c-0.01-0.799-0.128-1.586-0.271-2.369C137.673,60.691,137.598,60.764,137.523,60.837"/>
		<polygon fill="#F37820" points="135.504,62.806 135.504,62.806 135.504,62.806 		"/>
		<polyline fill="#F37820" points="137.753,83.695 137.751,83.696 137.753,83.694 137.753,83.695 		"/>
		<polygon fill="#F37820" points="135.504,62.806 135.504,62.806 135.504,62.806 		"/>
		<path fill="#132F51" d="M131.741,82.565c-0.124,0.189-0.257,0.373-0.399,0.551c-0.149,0.188-0.308,0.371-0.463,0.559
			c-0.317,0.39-0.634,0.783-0.929,1.189c-0.28,0.389-0.546,0.787-0.786,1.199c0.002-0.002,0.005-0.005,0.007-0.008
			c-0.181,0.315-0.348,0.641-0.491,0.975c-0.143,0.328-0.269,0.663-0.365,1.008c-0.125,0.484-0.171,0.986-0.236,1.482
			c-0.035,0.248-0.069,0.498-0.125,0.74c-0.048,0.211-0.105,0.42-0.189,0.619c-0.091,0.211-0.203,0.417-0.35,0.596
			c-0.124,0.15-0.264,0.287-0.417,0.406c-0.126,0.1-0.258,0.186-0.396,0.268c-0.1,0.057-0.201,0.111-0.302,0.169l0.004-0.003
			c-0.004,0.003-0.007,0.004-0.01,0.006c0.003,0,0.003-0.002,0.005-0.001c0-0.001,0.001-0.001,0.001-0.002
			c0,0.001-0.001,0.001-0.001,0.002c-0.003,0.001-0.006,0.003-0.008,0.004l0.003-0.003c-0.001,0.001-0.004,0.003-0.008,0.004
			c0.002,0,0.003-0.002,0.005-0.001c-0.083,0.05-0.163,0.104-0.232,0.17l0.011-0.012c-0.006,0.005-0.01,0.01-0.015,0.015
			c0.002-0.002,0.003-0.003,0.004-0.003l-0.004,0.003l0,0l0,0l0,0c-0.034,0.037-0.065,0.078-0.094,0.121
			c0,0.002-0.001,0.004-0.003,0.006c0.001-0.002,0.001-0.002,0.002-0.002c-0.001,0-0.001,0-0.002,0.002
			c-0.035,0.066-0.061,0.135-0.081,0.208c0.002-0.006,0.004-0.015,0.007-0.022c-0.038,0.152-0.048,0.306-0.047,0.46v-0.002
			c0.002,0.22,0.019,0.438,0.049,0.655c0.026,0.202,0.068,0.399,0.123,0.596c-0.003-0.008-0.004-0.015-0.006-0.021
			c0.063,0.221,0.139,0.438,0.231,0.646c0.092,0.211,0.195,0.414,0.311,0.615v-0.002c0.001,0.002,0.001,0.002,0.002,0.004
			s0.003,0.004,0.004,0.008c0.002,0,0.001,0.002,0.001,0.002c0.002,0.003,0.004,0.004,0.004,0.006c0,0,0-0.001-0.002-0.001
			c0.131,0.215,0.271,0.425,0.427,0.62c0.107,0.138,0.219,0.269,0.335,0.394c0.148,0.071,0.302,0.14,0.455,0.204
			c0.57,0.24,1.185,0.428,1.83,0.561c0.223,0.045,0.45,0.083,0.673,0.111c0.388,0.047,0.778,0.069,1.162,0.066
			c0.691-0.004,1.32-0.075,1.918-0.213c0.375-0.084,0.738-0.192,1.089-0.324c0.091-0.109,0.18-0.22,0.266-0.331
			c0.319-0.413,0.618-0.843,0.879-1.296l-0.01,0.02c0.236-0.412,0.449-0.848,0.575-1.31c0.001-0.003,0.001-0.007,0.002-0.01
			c0-0.001,0-0.002,0-0.002c0.046-0.185,0.077-0.37,0.079-0.56c-0.001-0.117-0.015-0.232-0.044-0.346
			c-0.023-0.078-0.053-0.148-0.091-0.221c-0.002-0.001-0.002-0.002-0.003-0.004c0-0.002-0.002-0.006-0.003-0.009
			c0.001,0.003,0.003,0.007,0.003,0.009c-0.043-0.068-0.091-0.131-0.146-0.188c-0.04-0.039-0.083-0.072-0.131-0.1
			c-0.039-0.021-0.08-0.038-0.124-0.051c0.008,0.002,0.016,0.006,0.022,0.008c-0.038-0.01-0.074-0.014-0.114-0.013
			c-0.05,0.003-0.096,0.011-0.143,0.024l0.022-0.005c-0.072,0.022-0.139,0.053-0.2,0.087c-0.172,0.105-0.322,0.238-0.479,0.361
			c-0.067,0.053-0.137,0.105-0.212,0.151c-0.062,0.037-0.127,0.071-0.199,0.083c-0.032,0.007-0.07,0.011-0.104,0.006
			c-0.027-0.006-0.059-0.011-0.084-0.023c-0.064-0.033-0.12-0.081-0.159-0.145c-0.028-0.044-0.054-0.09-0.073-0.137
			c-0.017-0.047-0.034-0.094-0.046-0.141c-0.03-0.105-0.051-0.213-0.053-0.322c-0.005-0.106-0.001-0.213,0.016-0.318
			c0.02-0.109,0.045-0.217,0.077-0.321c0.074-0.231,0.179-0.453,0.296-0.666c0.249-0.454,0.548-0.88,0.806-1.329
			c0,0.004-0.005,0.01-0.005,0.014c0.163-0.286,0.313-0.584,0.402-0.9l-0.001,0.008c0.001-0.008,0.004-0.016,0.005-0.022
			c-0.001,0.005-0.003,0.009-0.004,0.015c0.001-0.006,0.003-0.01,0.004-0.015c0.035-0.144,0.056-0.29,0.059-0.437
			c-0.003-0.123-0.02-0.242-0.053-0.357l0.008,0.021c-0.034-0.111-0.08-0.216-0.138-0.317c-0.077-0.128-0.169-0.241-0.272-0.35
			c0,0-0.001-0.001-0.001-0.003c0.002,0.002,0.001,0.003,0.001,0.003c0.002,0.001,0.002,0.001,0.004,0.001
			c-0.005-0.004-0.009-0.008-0.013-0.01c0.002,0.002,0.006,0.004,0.008,0.006c-0.002-0.002-0.006-0.004-0.008-0.006
			c-0.17-0.166-0.356-0.309-0.558-0.433l-0.001,0.001c0.002,0,0.002,0,0.002,0.001c0,0-0.002,0-0.002-0.001
			c-0.139-0.08-0.284-0.15-0.433-0.207c-0.126-0.047-0.254-0.09-0.383-0.133c-0.25-0.08-0.503-0.162-0.729-0.301
			c-0.118-0.074-0.231-0.161-0.329-0.264c-0.098-0.105-0.186-0.221-0.259-0.345c-0.081-0.137-0.15-0.278-0.204-0.429
			c-0.047-0.135-0.087-0.27-0.113-0.406c-0.125-0.627-0.08-1.275-0.006-1.905c0.04-0.335,0.087-0.67,0.125-1.005
			c0.021-0.207,0.039-0.414,0.049-0.623C132.079,81.999,131.921,82.29,131.741,82.565 M128.314,88.038
			c0,0.004-0.003,0.008-0.003,0.012C128.312,88.046,128.314,88.042,128.314,88.038"/>
		<polyline fill="#F5A032" points="128.317,88.033 128.318,88.027 128.317,88.033 		"/>
		<polyline fill="#F5A032" points="136.098,93.139 136.095,93.134 136.098,93.139 		"/>
		<polyline fill="#F5A032" points="136.153,94.268 136.153,94.266 136.153,94.268 		"/>
		<polyline fill="#F5A032" points="126.55,95.767 126.551,95.771 126.55,95.769 126.55,95.767 126.547,95.761 126.55,95.767 		"/>
		<polyline fill="#F5A032" points="126.553,95.774 126.551,95.771 126.551,95.771 126.553,95.774 		"/>
		<polyline fill="#F37820" points="137.753,83.695 137.751,83.696 137.753,83.694 137.753,83.695 		"/>
		<polygon fill="#F37820" points="135.504,62.806 135.504,62.806 135.504,62.806 		"/>
		<path fill="#77909C" d="M131.498,90.687c0-0.002,0-0.002,0-0.002c0,0.002-0.005,0.004-0.007,0.006
			C131.493,90.69,131.495,90.688,131.498,90.687c-0.003,0.003-0.008,0.008-0.014,0.012l0,0v0.001l0,0l-0.002,0.001h0.002
			c0-0.001,0-0.001,0-0.001V90.7c-0.452,0.467-0.813,1.01-1.138,1.566l0.005-0.007c-0.309,0.536-0.582,1.093-0.857,1.646
			c-0.131,0.268-0.261,0.535-0.399,0.799c-0.119,0.227-0.243,0.453-0.374,0.677c0.003-0.001,0.003-0.003,0.003-0.005
			c0.002-0.004,0.005-0.007,0.007-0.01c-0.002,0.004-0.005,0.008-0.007,0.01c-0.17,0.309-0.317,0.627-0.413,0.967
			c0,0.002-0.001,0.005-0.001,0.008c0-0.003,0.001-0.006,0.001-0.008l0.001-0.006c-0.028,0.111-0.052,0.224-0.063,0.34
			c-0.013,0.098-0.019,0.193-0.017,0.291c0-0.006-0.001-0.014-0.002-0.021c0.006,0.164,0.027,0.324,0.07,0.483
			c-0.001-0.009-0.004-0.015-0.007-0.022c0.048,0.167,0.117,0.325,0.202,0.476c0.118,0.196,0.259,0.372,0.416,0.538
			c0.185,0.049,0.372,0.093,0.563,0.133c0.232,0.047,0.458,0.085,0.674,0.111c0.386,0.049,0.776,0.07,1.164,0.066
			c0.604-0.004,1.159-0.059,1.688-0.164c0.038-0.143,0.067-0.287,0.083-0.434c0.015-0.131,0.021-0.26,0.02-0.391
			c0.001,0.008,0.002,0.016,0.003,0.022c-0.004-0.173-0.019-0.345-0.048-0.517c-0.029-0.175-0.069-0.348-0.117-0.52
			c0.003,0.008,0.004,0.017,0.005,0.023c-0.141-0.496-0.342-0.973-0.547-1.445c-0.056-0.134-0.118-0.267-0.172-0.403
			c-0.059-0.146-0.113-0.292-0.158-0.442c-0.077-0.265-0.139-0.534-0.171-0.809c-0.033-0.26-0.046-0.521-0.043-0.783
			c0.002-0.271,0.018-0.541,0.038-0.812c0.02-0.283,0.042-0.566,0.06-0.851c0.02-0.311,0.03-0.619,0.027-0.929
			c0.001,0.009,0,0.017,0.001,0.023V90.27C131.81,90.396,131.648,90.536,131.498,90.687 M128.733,95.36
			c0,0.004-0.001,0.006-0.003,0.006C128.732,95.366,128.733,95.364,128.733,95.36"/>
		<path fill="#F7B45E" d="M133.123,97.575h0.002c0.001-0.006,0.002-0.011,0.004-0.016C133.126,97.565,133.126,97.569,133.123,97.575
			"/>
	</g>
	<rect x="48.313" y="73.816" fill="#132F51" width="5.5" height="149.011"/>
</g>
<g id="Capa_3">
</g>
<g id="Texto">
</g>
<g id="Capa_5">
</g>
<g id="Mesa_2">
</g>
</svg>
